<?xml version="1.0" encoding="UTF-8"?>
<svg id="logo" xmlns="http://www.w3.org/2000/svg" viewBox="0 0 523.17 342.24">
  <defs>
    <style>
      .cls-1 {
        letter-spacing: .03em;
      }

      .cls-2 {
        letter-spacing: 0em;
      }

      .cls-3 {
        font-family: TwCenMT-CondensedBold, 'Tw Cen MT Condensed';
        font-size: 138px;
      }

      .cls-3, .cls-4 {
        fill: #231f20;
      }
    </style>
  </defs>
  <g id="cat">
    <path class="cls-4" d="M320.28,311.32c-3.69,9.4-9,19.33-18.49,23.9-5.67,2.55-11.85,3.65-18.01,4-4.11,.16-8.28,.05-12.41-1.22-9.97-3.38-5.74-10.62,.24-15.59,5.32-4.86,11.92-8.4,16.67-13.7,3.16-5.78,4.92-12.33,7.07-18.58,2.45-7.66,4.73-15.38,6.87-23.14,3.15-11.61,6.2-23.3,8.22-35.13,.44-2.85,.9-5.77,.85-8.6-.41-4.59-2.8-8.81-5-13.07-5.81-10.51-12.79-20.31-19.64-30.22-3.46-5-6.99-9.97-10.26-15.14-1.35-2.23-3.06-4.8-3.76-7.56-1.63-7.29-3.3-14.69-5.52-21.79-1.17-3.77-2.48-7.49-4.09-10.96-2.91-6.62-7.39-11.97-14.85-9.26-2.74,.88-5.42,2.53-8.46,3.51-.77,.25-1.94,.42-2.69,.31-5.32-.85-9.38-3.86-13.69-6.56-3.85-2.75-7.77-5.3-10.77-9.12-.86-1.25-1.07-2.42-.76-3.99,1.68-7.35,4.22-14.34,6.51-21.48,0,0-.19,1.06-.19,1.06,0-5.08,.11-11.55-.82-15.61-2.92-4,2.84-9.59,5.47-12.69,4.71-5.27,9.62-10.08,14.21-15.3,.83-.96,1.64-1.9,2.31-2.85,.41-1.64-.69-3.84-1.39-5.55-2.71-6.94-13.63-19.29-5.14-25.46,8.75-5.27,20.53,4.48,28.07,7.85,2.67,1.32,5.04,2.39,7.77,2.89,0,0,.87,.15,.87,.15l3.48,.6c4.65,.83,9.47,1.84,14.2,3.51,4.78,1.79,9.96,3.83,13.83,7.17,2.09,1.85,3.73,3.81,5.27,5.77,6.9,8.78,12.21,19.63,20.53,26.81,3.34,2.65,7.15,4.82,10.98,6.8,8.19,4.22,16.72,7.42,25.28,11.25,2.2,1.03,4.46,2.02,6.9,3.66,4.26,2.83,7.48,6.9,10.79,10.27,2.79,2.84,5.54,4.76,9.33,5.4,27.27,4.72,56.88,8.86,79.14,27.09,23.94,19.86,41.65,81.88,48.89,112.5,2.32,10.69,4.73,21.28,5.04,32.41-.01,8.01,.16,16.64-.14,24.66-.24,7.2-.6,14.53-1.76,21.78-.74,4.04-1.54,8.35-3.72,12.3-.9,1.57-2.23,3.43-3.87,4.59-2.81,2.05-5.9,2.92-8.99,3.97-35.86,10.08-94.43,14.93-128.73-1.31-18.75-8.7-30.28-27.93-37.34-46.47-7.91-21.92-12.31-51.39-1.74-73.25,4.32-8.4,10.54-13.36,19.88-15.42,15.12-3.7,31.08,.15,44.41,7.53,2.28,1.26,4.37,2.56,6.52,4.12,0,0-8.27,5.09-8.27,5.09-.45-3.06-.75-5.9-1.03-8.84-1.62-20.29-2.71-56.87,17.99-68.04,8.94-4.51,19.57-2.88,28.53,.61,11.63,4.8,19.91,15.12,25.09,26.08,17.6,39.3,13.71,94.92,7.98,136.81,0,0-1.39-.19-1.39-.19,3.56-40.24,5.14-96.94-12.81-133.53-4.81-9.37-11.97-18-21.87-21.75-6.55-2.32-15.06-3.65-21.43-.31-15.65,9.25-13.55,43.16-11.85,59.28,.58,5.5,2.25,14.68,3.17,20.13,0,0-10.31-6.88-10.31-6.88-12.95-8.26-29.76-13.07-44.63-7.65-14.7,4.98-14.25,32.93-12.31,45.97,3.18,21.16,11.65,42.75,27.42,57.51,21.47,17.53,61.86,16.12,88.72,13.78,9.03-.9,18.05-2.15,26.88-3.91,5.97-1.21,12.4-2.62,17.5-4.83-.06,.04-.12,.1-.15,.12-.08,.07-.1,.1-.1,.1,0,0,.1-.11,.22-.33,1.97-4.14,2.53-9.38,3.09-14.11,.92-8.95,1.14-18.15,1.29-27.22,0-2.51,.13-8.03,.11-10.41,0-5.36-.81-10.66-1.66-16.19-4.89-29.8-23.81-102.92-47.16-121.16-20.66-16.24-47.57-19.75-72.84-24.59-1.36-.29-2.77-.67-4.08-1.17-8.51-2.97-12.84-11.39-19.49-16.33-5.39-3.35-12.05-5.73-18.07-8.5-8.94-4.03-17.56-7.89-25.48-14.21-11.03-9.42-15.88-23.09-25.69-33.12-6.94-5.19-15.16-7.19-23.66-8.89,0,0-3.39-.63-3.39-.63-3.84-.56-7.73-2.26-10.99-3.95-4.34-2.24-8.3-4.73-12.18-6.64-2.63-1.2-5.06-2.48-7.5-1.96,0,0-.12,.05-.12,.05,.13-.05,.38-.34,.47-.58,.08-.21,.03-.23,.04-.03,.56,3.34,2.55,6.28,4.15,9.47,2.38,4.69,5.31,9.28,5.36,14.91,0,1.86-.75,3.98-2,5.47-2.29,2.89-4.79,5.48-7.28,8.08-4.76,5.14-10.33,10.01-14.13,15.68,0-.02,.02-.06,.05-.24,0-.05,.04-.25,.03-.37,.03-.54-.19-1.21-.58-1.76-.19-.25,.17,.24,.22,.33,.69,1.03,1,2.45,1.18,3.36,.91,5.75,.72,11.29,.6,17.03-2.01,5.82-4.02,11.71-5.78,17.59-.35,1.21-.7,2.35-.92,3.51-.01,.05,0-.02,0-.04v-.33c-.11-.68-.19-.74-.25-.87,2.22,2.57,5.76,5.21,8.79,7.35,2.91,2,6.46,4.32,9.64,5.41,.34,.11,.67,.18,.82,.19,.08,.01,.1,0,0,.02,.71-.1,1.65-.58,2.68-1,20.22-10.31,27.46,5.22,32.44,22.2,2.17,7.34,3.74,14.81,5.3,22.28,.56,2.07,1.81,3.88,2.98,5.93,3.12,5.11,6.53,10.07,9.89,15.07,4.51,6.69,9.05,13.41,13.33,20.33,4.28,7.17,8.68,14.02,10.97,22.3,1.08,4.18,.1,8.75-.56,12.9-.72,4.04-1.61,8.01-2.55,11.96-3.82,15.77-8.4,31.28-13.53,46.66-2.39,6.53-4.23,13.35-7.82,19.38-5.02,5.61-11.82,9.01-17.35,13.9-1.49,1.28-2.92,2.62-4.04,4.09-.94,1.31-1.85,2.8-1.22,4.29,.55,1.28,2.25,2.25,4,2.84,3.59,1.18,7.62,1.4,11.55,1.3,7.68-.39,16.11-1.65,22.24-6.54,6.03-5.06,10.12-12.35,13.02-19.6,0,0,1.32,.47,1.32,.47h0Z"/>
  </g>
  <g id="cat-eye">
    <path class="cls-4" d="M244.27,70.87c-3,1.56-6.47,1.75-9.07-.24,0,0-4.79-3.63-4.79-3.63,3.31-2.82,6.96-6.16,10.84-8.21,1.87-1.05,3.89-1.99,5.99-2.63,2.6-.79,2.53-.97,1.53,1.63-1.82,4.64-4.82,8.76-8.23,12.27,0,0-.75-7.07-.75-7.07,2.99,1.36,4.45,4.5,4.5,7.88h0Z"/>
  </g>
  <text class="cls-3" transform="translate(0 185.59)"><tspan class="cls-1"><tspan x="0" y="0">Kitty</tspan></tspan><tspan class="cls-2" x="0" y="107">K</tspan><tspan class="cls-1" x="66.4" y="107">ares</tspan></text>
</svg>